<svg width="14" height="15" viewBox="0 0 14 15" fill="none" xmlns="http://www.w3.org/2000/svg">
<path d="M12.25 5.75L12.25 2.25M12.25 2.25H8.75M12.25 2.25L7.58333 6.91667M5.83333 3.41667H4.55C3.56991 3.41667 3.07986 3.41667 2.70552 3.60741C2.37623 3.77518 2.10852 4.0429 1.94074 4.37218C1.75 4.74653 1.75 5.23657 1.75 6.21667V9.95C1.75 10.9301 1.75 11.4201 1.94074 11.7945C2.10852 12.1238 2.37623 12.3915 2.70552 12.5593C3.07986 12.75 3.56991 12.75 4.55 12.75H8.28333C9.26342 12.75 9.75347 12.75 10.1278 12.5593C10.4571 12.3915 10.7248 12.1238 10.8926 11.7945C11.0833 11.4201 11.0833 10.9301 11.0833 9.95V8.66667" stroke="#646464" stroke-width="1.5" stroke-linecap="round" stroke-linejoin="round"/>
</svg>
